<svg xmlns="http://www.w3.org/2000/svg" width="96" height="96" viewBox="0 0 96 96">
  <g id="github" transform="translate(-2 -2)">
    <circle id="Ellipse_1" data-name="Ellipse 1" cx="48" cy="48" r="48" transform="translate(2 2)" fill="#222"/>
    <path id="Path_2" data-name="Path 2" d="M25,.5A24.5,24.5,0,1,0,49.5,25,24.5,24.5,0,0,0,25,.5ZM39.549,39.549a20.521,20.521,0,0,1-6.542,4.411q-.934.395-1.9.694V40.982a4.8,4.8,0,0,0-1.986-4.258,21.535,21.535,0,0,0,2.285-.335,17.173,17.173,0,0,0,2.2-.623,10.954,10.954,0,0,0,2.082-.969,8.69,8.69,0,0,0,1.771-1.459A8.539,8.539,0,0,0,38.889,31.3a11.153,11.153,0,0,0,.909-2.728,17.058,17.058,0,0,0,.335-3.505,8.959,8.959,0,0,0-2.417-6.316,8.358,8.358,0,0,0-.239-6.245l-.6-.071a5.9,5.9,0,0,0-2.237.526,17.421,17.421,0,0,0-3.625,1.962,22.01,22.01,0,0,0-5.91-.79,21.581,21.581,0,0,0-5.886.79,20.455,20.455,0,0,0-2.4-1.424A12.39,12.39,0,0,0,15,12.738a6.249,6.249,0,0,0-1.268-.252,4.536,4.536,0,0,0-.753-.024,1.459,1.459,0,0,0-.239.048,8.356,8.356,0,0,0-.239,6.245,8.959,8.959,0,0,0-2.417,6.316,17.023,17.023,0,0,0,.335,3.505,11.175,11.175,0,0,0,.909,2.728,8.539,8.539,0,0,0,1.424,2.034A8.69,8.69,0,0,0,14.52,34.8a10.862,10.862,0,0,0,2.082.969,17.255,17.255,0,0,0,2.2.623,21.4,21.4,0,0,0,2.285.335,4.789,4.789,0,0,0-1.962,4.258v3.743A20.589,20.589,0,0,1,16.992,6.039a20.576,20.576,0,0,1,22.557,33.51Z" transform="translate(25 25)" fill="#f7f7f7"/>
  </g>
</svg>
