<svg xmlns="http://www.w3.org/2000/svg" width="96" height="96" viewBox="0 0 96 96">
  <g id="linkedin" transform="translate(-2 -2)">
    <circle id="Ellipse_2" data-name="Ellipse 2" cx="48" cy="48" r="48" transform="translate(2 2)" fill="#222"/>
    <path id="Path_3" data-name="Path 3" d="M41.27.5H8.731A8.255,8.255,0,0,0,.5,8.731V41.27A8.255,8.255,0,0,0,8.731,49.5H41.27a8.255,8.255,0,0,0,8.23-8.23V8.731A8.255,8.255,0,0,0,41.27.5ZM18.875,40.313H12.75V18.875h6.125Zm-3.062-24.5a3.063,3.063,0,1,1,3.063-3.062A3.062,3.062,0,0,1,15.813,15.813Zm24.5,24.5H34.188V28.063a3.063,3.063,0,0,0-6.125,0v12.25H21.938V18.875h6.125v3.8c1.263-1.735,3.194-3.8,5.36-3.8,3.806,0,6.891,3.428,6.891,7.656V40.313Z" transform="translate(25 25)" fill="#f7f7f7"/>
  </g>
</svg>
