<svg xmlns="http://www.w3.org/2000/svg" width="96" height="96" viewBox="0 0 96 96">
  <g id="twitter" transform="translate(-2 -2)">
    <circle id="Ellipse_3" data-name="Ellipse 3" cx="48" cy="48" r="48" transform="translate(2 2)" fill="#222"/>
    <path id="Path_4" data-name="Path 4" d="M49.5,9.714a20.016,20.016,0,0,1-5.773,1.592,10.138,10.138,0,0,0,4.42-5.595,20.061,20.061,0,0,1-6.384,2.454,10.046,10.046,0,0,0-17.392,6.918,10.2,10.2,0,0,0,.26,2.3A28.489,28.489,0,0,1,3.911,6.823a10.163,10.163,0,0,0,3.112,13.5A9.955,9.955,0,0,1,2.47,19.059c0,.042,0,.085,0,.128A10.1,10.1,0,0,0,10.533,29.1a10.011,10.011,0,0,1-4.54.174A10.071,10.071,0,0,0,15.384,36.3,20.1,20.1,0,0,1,2.9,40.626a20.413,20.413,0,0,1-2.4-.141,28.336,28.336,0,0,0,15.41,4.543c18.491,0,28.6-15.409,28.6-28.771q0-.658-.029-1.309A20.532,20.532,0,0,0,49.5,9.714Z" transform="translate(25 25)" fill="#f7f7f7"/>
  </g>
</svg>
